<svg width="25" height="24" viewBox="0 0 25 24" fill="none" xmlns="http://www.w3.org/2000/svg">
<path fill-rule="evenodd" clip-rule="evenodd" d="M22.2878 23.703C22.6782 24.0936 23.3113 24.0939 23.702 23.7035C24.0926 23.3131 24.0929 22.6799 23.7025 22.2892L13.4244 12.0044L23.7202 1.72548C24.1111 1.33527 24.1116 0.702107 23.7214 0.311262C23.3312 -0.0795825 22.698 -0.0801005 22.3072 0.310104L12.0107 10.5898L1.72082 0.293125C1.33042 -0.0975263 0.697256 -0.0977351 0.306601 0.292659C-0.0840502 0.683056 -0.0842584 1.31622 0.306138 1.70687L10.5953 12.0028L0.293473 22.2878C-0.0973714 22.678 -0.0978901 23.3112 0.292314 23.702C0.682518 24.0928 1.31568 24.0934 1.70653 23.7032L12.0091 13.4175L22.2878 23.703Z" fill="#EDE5E5"/>
</svg>
